<svg id="Layer_1" data-name="Layer 1" xmlns="http://www.w3.org/2000/svg" viewBox="0 0 271.86 122"><defs><style>.cls-1,.cls-3{fill:#fff;}.cls-2,.cls-4{fill:#27aae1;}.cls-2,.cls-3{fill-rule:evenodd;}</style></defs><title>pl-portal-logo</title><path class="cls-1" d="M124.15,43.67h-3.5c0-1.84-10.83-6.14-31.84-6.14S57,41.83,57,43.67h-3.5C53.46,36,76.58,34,88.81,34S124.15,36,124.15,43.67Z"/><path class="cls-2" d="M91.52,25.66a14.24,14.24,0,0,1-2.68-3.52,17.68,17.68,0,0,0-3.2-3.74,3,3,0,0,1-1-1.57c-.17-.88.62-1,1.36-1,1.58-.08,3.24,1.12,4.54,1.9,1.51.92,3.1,1.71,4.56,2.71s2.94,2.26,4.48,3.3a3,3,0,0,0,2.4.31c.87-.09,1.73-.21,2.59-.32a41.42,41.42,0,0,0,4.63-.75c.68-.17,1.37,0,2-.24s1.41-.58,2.13-.85c1.5-.55,3.21-.29,4.78-.34.48,0,1.39-.3,1.79,0s1.69-.4,2.18-.55a13.22,13.22,0,0,1,4.92-.67c.5,0,1.25.16,1.46.7a14.92,14.92,0,0,1-1.92,1.69,37.64,37.64,0,0,1-4.75,2.89c-.55.65-1,1.37-1.6,2a11.76,11.76,0,0,0-1.64,1.81c-1,1.58-2,3.17-3.07,4.74-1.52,2.32-3,5-5.12,6.89-1,.93-2,1.94-3.07,2.84s-2.35,1.74-3.51,2.63a37.2,37.2,0,0,1-15.68,6.94,63.24,63.24,0,0,1-7.84.84c-2.45.13-4.11,3.28-4.82,5.38A8.9,8.9,0,0,1,73.87,63c-.35.39-2,2.58-2.3,1.57s-.33-1.74-1.3-.78c-.18.18-.55.65-.85.58-.59-.13-.17-.93-.13-1.29-.62.56-2.88,2.16-3.74,1.63-.61-.38,1-1.44-.19-1.29a12.88,12.88,0,0,0-1.34.45c-.68.16-.15-.81,0-1.06.54-.89-.85-.34-1.3-.24-1.16.25-1.13-.41-.43-1.14A9.07,9.07,0,0,1,65,59.78a17,17,0,0,0,3.46-2.59c-2.62.4-5.16,1.19-7.75,1.74a29.41,29.41,0,0,0-2.94.71c-.61.2-1.49.53-2.1.16-1.53-.94,1-2.37,1.67-2.76A25.23,25.23,0,0,0,62,53.88,31.8,31.8,0,0,0,67,47.8c1.54-2.32,3.3-4.38,5-6.55s3.46-4.14,5.25-6.17,4.06-3.35,6.14-4.94c-2.68-1.93-5.16-4.15-7.84-6.09-.68-.49-1-1.21-1.64-1.71s-1.45-.89-1-1.66c.77-1.3,2.29-1.48,3.66-1.31a32.85,32.85,0,0,1,8.57,2.8,17.82,17.82,0,0,1,3.76,1.76c.44.34,1,.51,1.41.89s.65,1.05,1.19.83"/><path class="cls-3" d="M76.48,22.27A5.1,5.1,0,0,1,80.76,22c1.9.56,3.73,1.33,5.59,2a16.52,16.52,0,0,1,5.29,2.77c1.49,1.28,2.89,2.72,4.31,4.07a15,15,0,0,0,2.41,1.92c.45.28.9.53,1.36.79s.66.38,1.27.17c1.91-.64,3.64-1.87,5.6-2.54a12.33,12.33,0,0,1,2.82-.77c.89-.08,1.65-.5,2.53-.56a16.71,16.71,0,0,1,2.64.13,12.49,12.49,0,0,1,2.34.11c-1.21,1.79-2.35,3.62-3.57,5.41-.66,1-1.38,1.9-2.07,2.86a14,14,0,0,1-2,2.48,58.61,58.61,0,0,1-10.57,7.75,31,31,0,0,1-12,3.55c-1.17.09-2.33.28-3.49.41s-2.14,0-3.24.25-2.21.47-3.3.76c-.41.11-2.76,1-2.95.69a37,37,0,0,1,5.06-4.12,44.65,44.65,0,0,0,5-5.07A40.44,40.44,0,0,1,95,36.69c-.59-1.62-2.09-2.34-3.64-2.82a13,13,0,0,1-5-2.49c-1.85-1.56-3.86-3-5.81-4.42a12.63,12.63,0,0,1-2.63-2.35,4.82,4.82,0,0,0-1.19-1.09c-.57-.39-.55-.69-.25-1.25"/><path class="cls-1" d="M88.81,53.31c-12.22,0-35.34-2-35.34-9.64H57c0,1.84,10.83,6.14,31.84,6.14s31.84-4.3,31.84-6.14h3.5C124.15,51.3,101,53.31,88.81,53.31Z"/><circle class="cls-1" cx="43.33" cy="70.8" r="0.55" transform="translate(-36.09 46.66) rotate(-41.63)"/><circle class="cls-1" cx="39.81" cy="71.99" r="0.47" transform="translate(-37.77 44.62) rotate(-41.63)"/><ellipse class="cls-1" cx="35.08" cy="81.68" rx="0.28" ry="0.28" transform="matrix(0.54, -0.84, 0.84, 0.54, -52.6, 67.04)"/><ellipse class="cls-1" cx="34.57" cy="76.44" rx="0.36" ry="0.35" transform="translate(-48.47 64.49) rotate(-57.48)"/><circle class="cls-1" cx="30.73" cy="80.44" r="0.33" transform="translate(-45.58 40.55) rotate(-41.49)"/><circle class="cls-1" cx="30.36" cy="87.25" r="0.45" transform="translate(-50.19 42.03) rotate(-41.5)"/><circle class="cls-1" cx="39.87" cy="75.05" r="0.59" transform="translate(-39.77 45.38) rotate(-41.59)"/><circle class="cls-1" cx="36.23" cy="75.42" r="0.54" transform="translate(-40.89 42.96) rotate(-41.52)"/><ellipse class="cls-1" cx="33.14" cy="80.88" rx="0.55" ry="0.53" transform="translate(-52.86 65.24) rotate(-57.41)"/><circle class="cls-1" cx="29.17" cy="83.66" r="0.38" transform="translate(-48.17 40.44) rotate(-41.58)"/><circle class="cls-1" cx="27.91" cy="89.75" r="0.25" transform="translate(-52.31 40.77) rotate(-41.32)"/><circle class="cls-1" cx="24.16" cy="87.83" r="0.28" transform="translate(-52.17 38.12) rotate(-41.54)"/><circle class="cls-1" cx="54.88" cy="54.66" r="0.33" transform="translate(-22.4 49.51) rotate(-41.07)"/><circle class="cls-1" cx="53.1" cy="56.21" r="0.36" transform="translate(-23.84 48.53) rotate(-40.93)"/><ellipse class="cls-1" cx="48.42" cy="64.16" rx="0.28" ry="0.28" transform="translate(-31.77 69.58) rotate(-56.83)"/><ellipse class="cls-1" cx="50.74" cy="57.83" rx="0.31" ry="0.31" transform="translate(-25.43 68.66) rotate(-56.83)"/><ellipse class="cls-1" cx="50.92" cy="59.75" rx="0.36" ry="0.35" transform="translate(-26.98 69.53) rotate(-56.72)"/><circle class="cls-1" cx="45.8" cy="64.17" r="0.4" transform="translate(-30.85 45.71) rotate(-40.94)"/><circle class="cls-1" cx="43.46" cy="67.48" r="0.56" transform="translate(-33.58 44.96) rotate(-40.92)"/><circle class="cls-1" cx="48.75" cy="61.21" r="0.47" transform="translate(-28.23 47.18) rotate(-41.13)"/><circle class="cls-4" cx="70.7" cy="75.42" r="0.55" transform="matrix(0.75, -0.66, 0.66, 0.75, -32.25, 66.01)"/><circle class="cls-1" cx="67.18" cy="76.62" r="0.47" transform="translate(-33.93 63.97) rotate(-41.63)"/><ellipse class="cls-1" cx="62.46" cy="86.31" rx="0.28" ry="0.28" transform="matrix(0.54, -0.84, 0.84, 0.54, -43.92, 92.2)"/><ellipse class="cls-1" cx="61.95" cy="81.07" rx="0.36" ry="0.35" transform="translate(-39.71 89.72) rotate(-57.48)"/><circle class="cls-1" cx="58.11" cy="85.06" r="0.33" transform="translate(-41.78 59.85) rotate(-41.49)"/><circle class="cls-1" cx="57.74" cy="91.87" r="0.45" transform="translate(-46.38 61.33) rotate(-41.5)"/><circle class="cls-1" cx="67.24" cy="79.68" r="0.59" transform="translate(-35.94 64.71) rotate(-41.59)"/><circle class="cls-1" cx="63.6" cy="80.05" r="0.54" transform="translate(-37.08 62.27) rotate(-41.52)"/><ellipse class="cls-1" cx="60.51" cy="85.51" rx="0.55" ry="0.53" transform="translate(-44.12 90.45) rotate(-57.41)"/><circle class="cls-1" cx="56.55" cy="88.29" r="0.38" transform="translate(-44.34 59.77) rotate(-41.58)"/><circle class="cls-1" cx="51.54" cy="92.45" r="0.28" transform="translate(-48.35 57.44) rotate(-41.54)"/><circle class="cls-4" cx="82.26" cy="59.29" r="0.33" transform="translate(-18.71 68.63) rotate(-41.07)"/><circle class="cls-4" cx="80.48" cy="60.84" r="0.36" transform="translate(-20.18 67.6) rotate(-40.93)"/><ellipse class="cls-4" cx="75.8" cy="68.78" rx="0.28" ry="0.28" transform="translate(-23.25 94.59) rotate(-56.83)"/><ellipse class="cls-4" cx="78.12" cy="62.46" rx="0.31" ry="0.31" transform="translate(-16.9 93.67) rotate(-56.83)"/><ellipse class="cls-4" cx="78.29" cy="64.38" rx="0.36" ry="0.35" transform="translate(-18.49 94.5) rotate(-56.72)"/><circle class="cls-4" cx="73.18" cy="68.8" r="0.4" transform="translate(-27.18 64.78) rotate(-40.94)"/><circle class="cls-4" cx="70.84" cy="72.11" r="0.56" transform="translate(-29.92 64.03) rotate(-40.92)"/><circle class="cls-4" cx="76.13" cy="65.84" r="0.47" transform="translate(-24.52 66.33) rotate(-41.13)"/><circle class="cls-1" cx="47.24" cy="84.95" r="0.55" transform="translate(-44.5 52.83) rotate(-41.63)"/><circle class="cls-1" cx="43.72" cy="86.14" r="0.47" transform="translate(-46.18 50.79) rotate(-41.63)"/><ellipse class="cls-1" cx="38.99" cy="95.83" rx="0.28" ry="0.28" transform="translate(-62.71 76.83) rotate(-57.27)"/><ellipse class="cls-1" cx="38.48" cy="90.59" rx="0.36" ry="0.35" transform="translate(-58.59 74.33) rotate(-57.48)"/><circle class="cls-1" cx="34.64" cy="94.59" r="0.33" transform="translate(-53.97 46.69) rotate(-41.49)"/><circle class="cls-1" cx="34.27" cy="101.4" r="0.45" transform="translate(-58.59 48.17) rotate(-41.5)"/><circle class="cls-1" cx="43.78" cy="89.2" r="0.59" transform="translate(-48.17 51.54) rotate(-41.59)"/><circle class="cls-1" cx="40.14" cy="89.57" r="0.54" transform="translate(-49.29 49.11) rotate(-41.52)"/><ellipse class="cls-1" cx="37.05" cy="95.03" rx="0.55" ry="0.53" transform="translate(-62.98 75.06) rotate(-57.41)"/><circle class="cls-1" cx="33.08" cy="97.81" r="0.38" transform="translate(-56.57 46.59) rotate(-41.58)"/><circle class="cls-1" cx="31.82" cy="103.89" r="0.25" transform="translate(-60.68 46.88) rotate(-41.32)"/><circle class="cls-1" cx="28.07" cy="101.97" r="0.28" transform="translate(-60.57 44.27) rotate(-41.54)"/><circle class="cls-1" cx="58.79" cy="68.81" r="0.33" transform="translate(-30.74 55.56) rotate(-41.07)"/><circle class="cls-1" cx="57.01" cy="70.36" r="0.36" transform="translate(-32.16 54.55) rotate(-40.93)"/><ellipse class="cls-1" cx="52.33" cy="78.31" rx="0.28" ry="0.28" transform="translate(-41.85 79.26) rotate(-56.83)"/><ellipse class="cls-1" cx="54.65" cy="71.98" rx="0.31" ry="0.31" transform="matrix(0.55, -0.84, 0.84, 0.55, -35.5, 78.34)"/><ellipse class="cls-1" cx="54.83" cy="73.9" rx="0.36" ry="0.35" transform="translate(-37.04 79.18) rotate(-56.72)"/><circle class="cls-1" cx="49.71" cy="78.32" r="0.4" transform="translate(-39.16 51.73) rotate(-40.94)"/><circle class="cls-1" cx="47.37" cy="81.63" r="0.56" transform="translate(-41.89 50.98) rotate(-40.92)"/><circle class="cls-1" cx="52.66" cy="75.36" r="0.47" transform="translate(-36.57 53.24) rotate(-41.13)"/><path class="cls-2" d="M226.91,77.51c.09,1-.68,1.16-1.66,1a6,6,0,0,1-2.35-.46c-.5-1.78-1.1-3.52-1.72-5.24-1.32-3.68-2.19-6.75-3.8-10.36-.07,0-.16,13.66-.07,14.87.18,2.36-1.31,1.63-3,1.47-.36-1-.06-2.81.05-3.92.34-3.3-.2-6.81-.16-10.13,0-1.25-.2-8.38.55-8.41,2.12-.09,2.38-.48,3.43,1.52a115.77,115.77,0,0,1,5.41,12.63,81.39,81.39,0,0,0,0-10.18c-.1-1-.62-4.24.22-4.93,1.43.56,2.71-.73,2.56,1.77a80.46,80.46,0,0,0,.08,9.36c0,.61,0,2.82.08,4.78.25,2,.17,3.59.32,6.22"/><path class="cls-2" d="M210.91,78.33c-.27,1.07-1.42.73-2.19.71-1.48,0-1.15-1-1.15-2.37,0-2.71.1-5.56.09-8.33,0-3.54.09-7.14-.17-10.65-.15-2,2.53-2.77,3-1,0,2,.14,3.39.1,4.68-.06,1.75-.09,3.8,0,5.45.24,3.37.15,7.59.28,11.56"/><path class="cls-2" d="M189.58,56.7c-.15,1.23.56,2.34-.9,2.7a11.05,11.05,0,0,1-2.17.43,10.11,10.11,0,0,0-2.67.13,31.37,31.37,0,0,0-.2,3.82c.07,3.42.81,2,2.78,2.41a12.34,12.34,0,0,1,2.76.3,9.7,9.7,0,0,1,.19,3c-.56.13-5.54.66-5.64.43.14,1.38-.69,6.42.76,6.42.87,0,4.24-.75,4.77.12.39.63.54,2.79-.41,2.89-1.44.15-2.18,0-3.19.09-1.33.07-3-.27-4.53-.34-1.1,0-.57-5-.47-6.34.25-3.25.14-6.48.19-9.72,0-2.08-.1-3.86-.06-6.2a4.69,4.69,0,0,1,2.76-.54c1.27,0,5.22-.53,6,.43"/><path class="cls-2" d="M239.59,56.95c-.19,1,.48,2.85-.73,2.94-.13,0-1.38.11-2.18.07s-1.43.14-2,.13a6.75,6.75,0,0,0-1.89,0,10,10,0,0,1,.12,2.19c.08,1.23-.5,3.51,2.12,2.69,1,.07,3.51-.56,4.16.4,2.49,3.67-4.63,3-6.09,3,0,2-.16,4.06,0,5.91.2,3.09,3.79.89,6.14,1.43,1,.24,1.08,3.44-.5,3.23a20.47,20.47,0,0,0-3.81.06c-1.14.07-3.67-.08-4.64-.81,0-1.93-.28-6.6-.32-9.55,0-2.14.45-4.26.27-6.43s-.57-5.7,1.39-6.05c1.34-.24,7.44-.87,8,.71"/><path class="cls-2" d="M177.21,56.7c.46,3.1-1.94,2.74-4.06,2.78a10.16,10.16,0,0,0-2,.18c.06.39-.13,1.48-.13,2.21,0,1.2-.54,3.53.92,3.32,1.26-.18,2.5.13,3.79,0,1.84-.16,1.59,1.44,1.41,3.21-1.26.12-2.51.32-3.78.39a11.79,11.79,0,0,1-2,0c-.13.36-.06,2-.14,2.37-.08,3.31,0,4,.07,6.36,0,1.61-.39,1.86-2,1.71-1.73.34-1.31-2.43-1.3-3,.1-6.61-.15-13.41.2-20,1.18-.61,8.39-.4,8.92.5"/><path class="cls-2" d="M196.83,56.9c.32,1.26,0,4.94,0,6.35-.09,2.85-.09,6.43.08,9a20.41,20.41,0,0,0-.06,2.63c.2,1,3.36.54,4,.58,1.26.08,2.19-.27,2.89.72,0,1.2.53,3.34-.44,3.3-2.23-.07-4.57,0-6.81-.21-2.84,0-2.2-1-2.28-3.41-.07-2.12-.46-4.31-.37-6.42.13-3.17-.3-6.43-.23-9.65,0-1.17-.62-3.52.72-3.36.87.11,1.8.41,2.53.51"/><path class="cls-2" d="M160.31,56.58c1.78.26,3-.15,3,2.22s.12,4.68.18,7.11c0,2.13-.21,4.4-.13,6.69,0,1.4.37,4.52.47,6.11-2.5,1.45-3.41.3-3.49-2.38-.07-2.85-.41-5.61-.42-8.47.23-2.2-.13-10.11.36-11.28"/><path class="cls-2" d="M149.63,56.95c-.12,1.9-1.22,18.07.22,18.24a40.64,40.64,0,0,0,5.9.14c1.56-.06,1.55,3.3.4,3.43s-2.07-.14-3-.13c-1.78,0-2.46,0-4.23,0a7.35,7.35,0,0,1-1.58-.07c-2,.41-1-3.72-1.15-4.81.52-4,0-8.32.21-12.33.07-1.54-.12-3.09-.1-4.62.23-.61,2.84-.29,3.34.19"/><path class="cls-2" d="M248.3,59.16c-1.16,0-1.05,4.08-.86,4.8.41,1.55,4.24,1.65,5.18,3.69a8.83,8.83,0,0,1,1,3.4,14.86,14.86,0,0,1-.81,5.54c-.68,1.33-.72,1.28-1.32,1.75a8.14,8.14,0,0,1-2.07,1.17c-1,.49-4.09.31-4.84-1s-.56-4.12-.12-5.33c3.59-.9,1.25,1.62,3.13,2.65,3.49.49,3.41-5.37,1-7-1.12-.76-2.58-1.15-3.48-2.31-1.4-1.79-.85-4.49-.87-6.73,0-4.09,3.48-5.34,6.17-3.39,1,.7,3.37,4.42,1.16,4.6s-2-2.34-3.33-1.89"/><path class="cls-2" d="M254.13,19.19c0,2.47-.33,5.74-.34,9,0,3.55,0,7.11-.07,10.66q-.05,2.79-.22,5.59c-.06.89-.13,1.78-.21,2.67,0,.34-.06.68-.1,1a7.2,7.2,0,0,1-1.77,0,9.73,9.73,0,0,1-1.56,0c-.35,0-1.09-.12-1.43-.09-.26-.46-.54-.8-.76-1.29a36.37,36.37,0,0,1-2-4.9c-1.12-3.74-1.93-7.59-3.25-11.25,0,3.8-.14,7.61-.25,11.41-.05,1.91-.11,3.82-.15,5.73a10.4,10.4,0,0,1-4.49-.13c.43-8.19.92-19.86.42-28,1.12-.4,3.73-.69,4.74-.14a19.34,19.34,0,0,1,1.9,4.13c.72,2.09.8,2.38,1.43,4.33.2.58.63,1.92.81,2.47.38,1.14,1.33,3.56,1.48,4.19a25,25,0,0,1,1.14,3.81c-.22-5.67-.46-13.22-.13-19.15.1-1.75,3.65-.33,4.87-.13"/><path class="cls-2" d="M222.56,19.08c.71.08.24,1.45.32,2,.22,4.92-.42,11.62-.42,17.55a17.15,17.15,0,0,1-1,6.88c-.93,2.07-2.55,2-4.38,2.19-2.62.3-6.5.34-7.51-3.7-1.91-7.62-.72-10.51-.72-18.31,0-.52-.3-5.6.08-5.89.76-.8,3.29-.21,4.25-.29-.05,7.12-1.89,21,.14,22.73,2.93,2.53,5.49-.15,5.64-3.86.24-6-.69-14.3,0-19,1.19,0,2.34-.28,3.63-.31"/><path class="cls-2" d="M232,19.51c-.06,8.47.31,19.09-.3,28.11a7.09,7.09,0,0,1-4.93-.34c0-.47.36-4.92.25-5.51-.19-9-.13-15.47.24-22.53a36.17,36.17,0,0,1,4.73.28"/><path class="cls-2" d="M205.25,28.26a3.66,3.66,0,0,1-2.5.07c-1-.29-.88-1-1-2a3.93,3.93,0,0,0-.57-2.27,2.64,2.64,0,0,0-2.13-.1c-2.5,1.14-2.64,6.06-2.85,8.55-.18,2.14-.26,4.28-.23,6.43,0,.87,0,1.74.13,2.61s1.16,1,1.8,1a5.73,5.73,0,0,0,2.09-.3c.93-.31,1-1.23,1-2.15,0-.47.07-1.41-.45-1.54-.35-.08-.7-.06-1-.12-.95-.16-.4-2.27-.29-3.09.14-1,2-.59,2.72-.5s1.73.3,2.6.41a30.42,30.42,0,0,1,.05,4.77c-.17,2.46-.58,6.38-3.18,7-2.08.51-5.72.87-7.62-.44-2.58-1.77-1.83-6.73-1.69-9.53.2-3.78.6-7.54.93-11.3.21-2.28.29-3.57,1.69-4.9a7.82,7.82,0,0,1,5.08-1.64c1.45,0,3.4.33,4.24,1.35,1.37,1.65,1.31,4.38,1.16,7.67"/><path class="cls-2" d="M188.74,19.75a91.75,91.75,0,0,1,.17,9.89c0,3.92,0,5.89,0,6.84s0,3.2-.06,4.24a41.28,41.28,0,0,1-.19,5.57,10.77,10.77,0,0,1-4.3.19,39.91,39.91,0,0,1-1.71-4.68c-.73-2.12-.79-2.46-1.59-4.5-.29-.75-1.07-2.9-1.35-3.67a13.34,13.34,0,0,0-.84-2.14c.36,4.86.08,9.79,0,14.74a10.65,10.65,0,0,1-3.77,0c.14-9-.18-17.19-.35-26a16.24,16.24,0,0,1,3.8-.25c.27,0,1.6,4.13,3.23,7.91,1.45,3.37,3.35,9,3.54,11-.32-3.47-.34-14.27-.06-19.31,1.16.07,2.47,0,3.44.18"/><path class="cls-2" d="M169.76,20.32c.31,1.74.26,3.9-.09,4a41.7,41.7,0,0,1-5.08.75c-.62.05-.78-.18-.85.62,0,.57-.07,1.14-.08,1.71,0,1.21,0,2.42.12,3.63,1.59-.21,3.2-.3,4.8-.4l1-.07c.75-.05.64.17.64.94,0,1,.05,2,0,3.07a28.14,28.14,0,0,1-3.43.6c-.51.05-1,0-1.51,0-.78.05-2-.09-2,1,0,1.38.08,2,.17,3.38,0,.71,0,2.1.13,2.8.54,0,1.58.06,2.12,0,1.16-.05,1.7-.07,2.77-.14a6.52,6.52,0,0,1,1.49,0c1,.19,1.16-.3,1.25.76a13.52,13.52,0,0,1,.06,3.45c-1.33.08-2.67.09-4,.11s-2.5,0-3.76.1c-.56,0-.77.09-1.32.13-.74.07-1.79-.06-1.91-1A63.31,63.31,0,0,1,160,38c-.07-5.66-.2-11.67-.33-17.33a88.7,88.7,0,0,1,10.11-.54"/><path class="cls-2" d="M156.54,25c-1.18-3.89-7.8-4.21-11.08-2.75.08,2.38.2,6,.25,7.51.2,6.84-.06,11,.13,17.84a9.71,9.71,0,0,0,3.92-.17c-.17-2.75,0-6.53,0-9.93,2.48-.66,5.6-1,6.64-4.1A15.37,15.37,0,0,0,156.54,25Zm-3.83,7.84a7.83,7.83,0,0,1-2.84.77c-.24,0-.32-.63-.32-.63L149,24.59s3-.36,3.81.4a5.92,5.92,0,0,1,1.37,4A5.11,5.11,0,0,1,152.72,32.81Z"/><path class="cls-1" d="M151.64,92.13c3.28,0,5.54,2.11,5.54,5.21s-2.29,5.21-5.64,5.21h-4.38V92.13Zm-1.83,8.31h1.89a2.82,2.82,0,0,0,2.79-3.08,2.89,2.89,0,0,0-2.9-3.11h-1.77Z"/><path class="cls-1" d="M160.66,100.63l-.76,1.92h-2.73l4.5-10.42h2.73l4.39,10.42H166l-.74-1.92ZM163,94.76l-1.52,3.86h3Z"/><path class="cls-1" d="M173.47,94.25v8.29h-2.65V94.25H167.7V92.11h8.91v2.14Z"/><path class="cls-1" d="M179,100.63l-.76,1.92H175.5L180,92.13h2.73l4.39,10.42h-2.83l-.74-1.92Zm2.29-5.87-1.52,3.86h3Z"/><path class="cls-1" d="M196.08,92.13c2.67,0,4.2,1.31,4.2,3.63s-1.53,3.86-4.2,3.86h-1.89v2.93h-2.65V92.13Zm-1.89,5.41h1.76c1.16,0,1.83-.58,1.83-1.68s-.67-1.64-1.83-1.64h-1.76Z"/><path class="cls-1" d="M212.25,97.32A5.65,5.65,0,1,1,206.6,92,5.38,5.38,0,0,1,212.25,97.32Zm-8.56,0a3,3,0,0,0,2.95,3.11,3.1,3.1,0,1,0-2.95-3.11Z"/><path class="cls-1" d="M218.38,99.62h-2.08v2.93h-2.65V92.13h4.66c2.75,0,4.33,1.31,4.33,3.63a3.47,3.47,0,0,1-1.89,3.35l2.19,3.44h-3Zm-.07-2.08a1.58,1.58,0,0,0,1.82-1.68c0-1.09-.67-1.64-1.82-1.64h-2v3.32Z"/><path class="cls-1" d="M229.24,94.25v8.29h-2.65V94.25h-3.11V92.11h8.91v2.14Z"/><path class="cls-1" d="M234.77,100.63l-.76,1.92h-2.72l4.5-10.42h2.73l4.39,10.42h-2.83l-.74-1.92Zm2.29-5.87-1.52,3.86h3Z"/><path class="cls-1" d="M250.93,100.33v2.22h-7.07V92.13h2.65v8.21Z"/></svg>