<svg version="1.1" id="Layer_1" xmlns="http://www.w3.org/2000/svg" xmlns:xlink="http://www.w3.org/1999/xlink" x="0px" y="0px"
	 viewBox="0 0 271.9 122" style="enable-background:new 0 0 271.9 122;" xml:space="preserve">
<style type="text/css">
	.st0{fill:#FFFFFF;}
	.st1{fill:#27AAE1;}
	.st2{fill:#394EA1;}
	.st3{fill:#FEFEFE;}
</style>
<title>pl-portal-logo</title>
<g>
	<path class="st0" d="M150,92.1c3.3,0,5.5,2.1,5.5,5.2s-2.3,5.2-5.6,5.2h-4.4V92.1H150z M148.2,100.4h1.9c1.6,0,2.8-1.3,2.8-2.8
		c0-0.1,0-0.2,0-0.2c0.1-1.6-1.1-3-2.7-3.1c-0.1,0-0.2,0-0.2,0h-1.8L148.2,100.4z"/>
	<path class="st0" d="M159,100.6l-0.8,1.9h-2.7l4.5-10.4h2.7l4.4,10.4h-2.8l-0.7-1.9H159z M161.4,94.8l-1.5,3.9h3L161.4,94.8z"/>
	<path class="st0" d="M171.8,94.2v8.3h-2.6v-8.3h-3.1v-2.1h8.9v2.1H171.8z"/>
	<path class="st0" d="M177.4,100.6l-0.8,1.9h-2.7l4.5-10.4h2.7l4.4,10.4h-2.8l-0.7-1.9H177.4z M179.7,94.8l-1.5,3.9h3L179.7,94.8z"
		/>
	<path class="st0" d="M194.4,92.1c2.7,0,4.2,1.3,4.2,3.6s-1.5,3.9-4.2,3.9h-1.9v2.9h-2.6V92.1H194.4z M192.6,97.5h1.8
		c1.2,0,1.8-0.6,1.8-1.7s-0.7-1.6-1.8-1.6h-1.8V97.5z"/>
	<path class="st0" d="M210.6,97.3c0.2,3.1-2.2,5.8-5.3,6c-3.1,0.2-5.8-2.2-6-5.3c-0.2-3.1,2.2-5.8,5.3-6c0.1,0,0.2,0,0.3,0
		c3-0.1,5.5,2.1,5.6,5.1C210.6,97.2,210.6,97.2,210.6,97.3z M202.1,97.3c-0.1,1.7,1.2,3,2.9,3.1c0,0,0,0,0.1,0
		c1.7,0.1,3.2-1.2,3.2-2.9c0.1-1.7-1.2-3.2-2.9-3.2c-1.7-0.1-3.2,1.2-3.2,2.9C202.1,97.2,202.1,97.3,202.1,97.3z"/>
	<path class="st0" d="M216.7,99.6h-2.1v2.9H212V92.1h4.7c2.8,0,4.3,1.3,4.3,3.6c0.1,1.4-0.6,2.7-1.9,3.3l2.2,3.4h-3L216.7,99.6z
		 M216.7,97.5c0.9,0.1,1.7-0.5,1.8-1.3c0-0.1,0-0.2,0-0.4c0-1.1-0.7-1.6-1.8-1.6h-2v3.3H216.7z"/>
	<path class="st0" d="M227.6,94.2v8.3H225v-8.3h-3.1v-2.1h8.9v2.1H227.6z"/>
	<path class="st0" d="M233.1,100.6l-0.8,1.9h-2.7l4.5-10.4h2.7l4.4,10.4h-2.8l-0.7-1.9H233.1z M235.4,94.8l-1.5,3.9h3L235.4,94.8z"
		/>
	<path class="st0" d="M249.3,100.3v2.2h-7.1V92.1h2.6v8.2L249.3,100.3z"/>
</g>
<g>
	<path class="st1" d="M187.2,34.9c-0.2,0.8-0.1,1.7-0.1,2.5c-0.2,2.8,0,5.6-0.1,8.4c0,0.4-0.1,0.5-0.4,0.5c-0.9,0.2-1.9,0.1-2.8,0
		c-0.4,0-0.8,0-1.1,0c-0.4,0-0.5-0.1-0.5-0.5c0-3,0.1-5.9,0-8.9c-0.1-2.5-0.1-5.1-0.1-7.6c0-1.2,0-2.4,0.1-3.6
		c0-0.9,0.1-1.9,0.2-2.8c0-0.3,0.1-0.4,0.4-0.4c1.2-0.2,2.5,0,3.7,0.1c0.2,0,0.4,0.1,0.5,0.4c0.3,0.8,0.7,1.6,1.1,2.3
		c0.9,2.1,2,4.1,3,6.2c0.1,0.2,0.2,0.4,0.3,0.5c0.1-0.5,0.2-0.9,0.2-1.4c-0.1-2.6-0.1-5.2-0.1-7.8c0-0.4,0.2-0.5,0.6-0.6
		c1-0.1,1.9-0.1,2.9-0.1c0.4,0,0.7,0.1,1.1,0.1c0.4,0,0.4,0.3,0.4,0.6c0,5.5,0,11,0,16.5c0,2.2,0,4.4,0,6.6c0,0.4-0.1,0.5-0.5,0.5
		c-0.9,0.2-1.8,0-2.7-0.1c0,0,0,0,0,0c-1,0.3-1.3-0.4-1.6-1.2c-0.6-1.4-1.3-2.9-1.9-4.3c-0.8-1.8-1.6-3.7-2.2-5.6
		C187.4,35.1,187.3,35,187.2,34.9z"/>
	<path class="st1" d="M252.1,34.8c0.1,0.6-0.1,1.1-0.1,1.7c-0.1,3.1-0.1,6.2-0.1,9.3c0,0.3-0.1,0.4-0.3,0.4
		c-0.6,0.1-1.2,0.2-1.8,0.1c-0.7-0.1-1.4-0.1-2.1-0.1c-0.6,0-0.7,0-0.7-0.6c0-2,0-3.9,0-5.9c0-3.2-0.2-6.4-0.1-9.6
		c0-1.3,0-2.7,0.1-4c0.1-1.2,0-2.4,0.2-3.5c0-0.2,0.1-0.3,0.3-0.3c1.3-0.2,2.5-0.1,3.8,0.1c0.2,0,0.4,0.2,0.5,0.4
		c0.6,1.4,1.3,2.7,1.9,4c0.6,1.3,1.2,2.6,1.9,3.9c0.2,0.4,0.4,0.8,0.7,1.2c0.2-0.3,0.2-0.7,0.2-1c0-1,0.1-2,0-3
		c-0.1-1.5,0-2.9-0.1-4.4c0-0.4,0.1-0.7,0.1-1.1c0-0.3,0.2-0.3,0.4-0.3c0.4,0,0.9-0.1,1.3-0.1c0.9,0,1.7-0.1,2.6,0.1
		c0.3,0.1,0.5,0.2,0.5,0.5c0,7.7,0,15.4,0,23.1c0,0.3-0.1,0.5-0.4,0.5c-0.9,0.2-1.7-0.1-2.6,0c-0.2,0-0.3-0.1-0.5-0.1
		c-0.6,0.1-0.9-0.1-1.1-0.7c-1.5-3.4-3.2-6.7-4.3-10.2C252.4,35.1,252.3,35,252.1,34.8z"/>
	<path class="st1" d="M220.3,55.7c0-1.5,0-2.5-0.1-3.6c0-0.3,0.1-0.4,0.4-0.5c1.4-0.3,2.8-0.3,4.2-0.3c0.2,0,0.2,0.1,0.2,0.3
		c0,0.5,0,1.1,0.1,1.6c0.1,1.3,0,2.6,0.1,3.9c0.1,1.6,0.1,3.2,0.2,4.7c0.1,1.5,0.1,3,0.2,4.4c0.1,1.6,0.1,3.2,0.2,4.8
		c0.1,1.3,0.1,2.5,0.2,3.8c0,0.3,0,0.4-0.4,0.4c-0.6,0.1-1.2,0.1-1.8,0.1c-0.7,0.1-1.5,0-2.2,0c-0.5,0-0.6-0.2-0.6-0.6
		c-0.1-1.4-0.2-2.8-0.2-4.2c0-1-0.1-2-0.1-3.1c0-0.5,0-0.9-0.1-1.4c0-0.1-0.1-0.2-0.2-0.2c-1.1-0.1-2.3-0.2-3.4,0.1
		c-0.2,0-0.3,0.1-0.3,0.3c-0.1,1.3-0.1,2.6,0,3.9c0.1,1.6,0.1,3.2-0.1,4.7c0,0.2-0.1,0.3-0.3,0.4c-0.7,0.2-1.4,0.1-2.1,0.1
		c-0.7,0-1.4-0.3-2.1,0c-0.3,0.1-0.3,0-0.3-0.2c0-0.9-0.1-1.8-0.1-2.8c-0.1-1.9-0.1-3.9-0.2-5.8c0-0.8,0-1.6-0.1-2.4
		c-0.1-4-0.1-8-0.1-12c0-0.6,0-0.5,0.5-0.5c0.5,0,1,0,1.4,0c0.7-0.1,1.4,0,2.1,0c0.4,0,0.5,0.3,0.5,0.6c0.1,1.1,0.1,2.3,0.2,3.4
		c0.1,1.6,0.1,3.2,0.4,4.7c0,0.2,0.1,0.3,0.3,0.3c1.1,0.2,2.1,0,3.2-0.1c0.2,0,0.3-0.1,0.3-0.3C220.2,58.6,220.4,57,220.3,55.7z"/>
	<path class="st1" d="M197.5,62.7c0,1.4,0,2.4,0,3.4c0.1,1,0.1,2,0.6,2.9c0.2,0.3,0.4,0.5,0.6,0.7c1.2,1,3.2,0,3.4-1.6
		c0.1-0.6,0.1-1.3,0.1-1.9c0-0.6,0.1-0.6,0.7-0.6c0.3,0,0.6,0.1,0.9,0c0.8-0.1,1.7-0.1,2.5,0c0.4,0,0.7,0.1,0.8,0.6
		c0.6,2.5,0.1,4.8-1.4,6.8c-1.3,1.7-3,2.6-5.2,2.7c-0.7,0-1.5,0.1-2.2,0.1c-1.8-0.1-3.5-0.6-4.8-2.1c-0.7-0.8-1-1.8-1-2.8
		c-0.2-4.7-0.1-9.4-0.1-14.1c0-1.7,0.7-3.1,1.6-4.4c0.9-1.2,2.2-1.5,3.4-1.7c1.9-0.3,3.8-0.1,5.5,0.8c2.3,1.2,3.8,3,4.3,5.6
		c0.2,1.2,0.1,2.4-0.2,3.6c-0.1,0.3-0.2,0.4-0.4,0.4c-1,0.2-1.9,0.2-2.9,0.1c-0.5-0.1-1-0.1-1.5-0.2c-0.2,0-0.3-0.1-0.3-0.3
		c-0.1-0.6,0-1.3-0.2-1.9c-0.1-0.6-0.1-1.2-0.5-1.7c-0.4-0.5-1.1-0.8-1.8-0.7c-0.4,0.1-0.8,0.1-1.2,0.3c-0.4,0.2-0.5,0.5-0.6,0.9
		C197.5,59.5,197.5,61.3,197.5,62.7z"/>
	<path class="st1" d="M223.3,24.7c-0.1,2.2-0.1,4.4-0.1,6.6c0,1.1,0,2.2,0.1,3.3c0.1,1,0.1,2.1,0.2,3.1c0.1,0.7,0,1.4,0.2,2.1
		c0.1,0.6,0.8,1.3,1.4,1.5c1.1,0.3,2.2-0.4,2.6-1.4c0.2-0.5,0.1-1.1,0.1-1.6c0.1-2.6,0-5.2,0.1-7.8c0.1-2,0-4,0.1-6
		c0-0.3,0.1-0.7,0.1-1c0-0.2,0.1-0.2,0.2-0.2c0.7-0.1,1.5-0.2,2.2-0.2c0.8,0,1.5,0,2.2,0.2c0.3,0.1,0.3,0.2,0.3,0.5
		c0.1,3.4,0.1,6.8,0.1,10.1c0,1.7-0.1,3.4-0.3,5c-0.1,1-0.1,2.1-0.4,3.1c-0.4,1.7-1.2,3-2.7,3.9c-0.9,0.5-1.9,0.8-2.9,0.9
		c-1.8,0.2-3.6-0.1-5.3-0.9c-1.6-0.8-2.8-2-3.2-3.8c0-0.1,0-0.3,0-0.4c0-2.5-0.1-4.9,0-7.4c0.1-3.6,0-7.1,0.1-10.7
		c0-0.3,0.1-0.4,0.4-0.4c0.7,0,1.4,0,2.1,0c0.7,0,1.4,0,2.1,0.1c0.2,0,0.3,0.1,0.3,0.4C223.3,23.8,223.3,24.2,223.3,24.7z"/>
	<path class="st1" d="M214.6,38.3c0.1,1.4-0.1,2.8-0.3,4.2c-0.3,1.6-1.3,2.7-2.8,3.3c-1.2,0.5-2.5,0.7-3.8,0.8
		c-1.1,0.1-2.2,0-3.2-0.2c-1.8-0.5-2.9-1.7-3.5-3.4c-0.4-1.3-0.6-2.6-0.7-3.9c-0.2-2-0.4-4-0.3-6c0.1-2.2,0.1-4.3,0.6-6.5
		c0.5-2.1,1.8-3.4,3.9-4c2.2-0.6,4.5-0.5,6.6,0.4c1.8,0.8,2.9,2.2,3.3,4.1c0.2,0.9,0.2,1.8,0.1,2.7c0,0.2-0.1,0.3-0.3,0.3
		c-1.3,0.1-2.5,0.1-3.8,0c-0.3,0-0.3-0.2-0.4-0.4c-0.2-0.6-0.5-1.2-0.8-1.7c-0.4-0.6-1-0.8-1.6-0.9c-0.3,0-0.6,0-0.9,0
		c-0.8,0.1-1.1,0.6-1.2,1.3c-0.3,1.3-0.5,2.7-0.6,4.1c-0.1,1.2-0.1,2.4-0.1,3.6c0,1.2,0.1,2.4,0.3,3.5c0.3,1.2,1.1,2,2.2,1.9
		c0.5,0,1-0.1,1.4-0.3c0.8-0.3,1.2-1,1.3-1.8c0-0.3,0.1-0.6,0.1-1c0-0.3-0.1-0.5-0.5-0.5c-0.6,0-1.2,0-1.8,0c-0.2,0-0.3,0-0.3-0.3
		c0-0.2-0.1-0.3-0.1-0.5c0-0.9,0.1-1.8-0.1-2.7c0-0.2,0.1-0.3,0.3-0.4c0.4-0.2,0.9-0.2,1.3-0.2c0.9,0,1.8-0.1,2.7,0
		c0.9,0.1,1.8,0.2,2.7,0.2c0.2,0,0.3,0.1,0.3,0.3C214.6,35.7,214.7,37,214.6,38.3z"/>
	<path class="st1" d="M173.2,27.7c-0.7,0-1.4,0-2.1,0c-0.6,0-1.1,0.1-1.7,0.1c-0.2,0-0.3,0.1-0.2,0.3c0.1,1.1-0.2,2.1,0,3.2
		c0.1,0.3,0.1,0.5,0.5,0.5c1.2,0,2.3,0.1,3.5,0.1c0.2,0,0.3,0.1,0.3,0.3c0.1,0.8,0.1,1.6,0.1,2.4c-0.1,0.6-0.1,1.3-0.1,1.9
		c0,0.3-0.3,0.3-0.5,0.3c-0.9,0.1-1.8,0.1-2.7,0.1c-0.2,0-0.3,0-0.5,0.1c-0.4,0-0.5,0.3-0.5,0.6c0,0.5-0.1,1-0.1,1.6
		c0,0.6,0.1,1.1,0.1,1.7c0,0.3,0.1,0.5,0.5,0.5c0.6,0,1.1,0,1.7,0c1.3,0,2.5,0.1,3.8,0.1c0.7,0,1.3,0,2,0.1c0.1,0,0.2,0,0.3,0
		c0.7-0.1,0.7-0.1,0.7,0.6c0,1.1,0.1,2.3-0.2,3.4c-0.1,0.4-0.2,0.6-0.7,0.6c-3.1-0.1-6.1,0.1-9.2,0.1c-1.3,0-2.7-0.1-4-0.2
		c-0.3,0-0.3-0.2-0.3-0.4c0-1.4,0.1-2.8,0-4.2c-0.1-2,0-3.9-0.1-5.9c-0.1-2.6-0.1-5.1-0.1-7.7c0-1.6,0.1-3.2,0.1-4.8
		c0-0.2,0.1-0.3,0.3-0.3c0.1,0,0.2-0.1,0.3,0c1.3,0,2.6-0.1,4-0.1c1.4-0.1,2.7,0,4-0.1c1.5-0.1,3.1,0,4.6-0.1c0.3,0,0.6,0.1,0.9,0.1
		c0.1,0,0.2,0.1,0.2,0.2c0.1,1,0.2,2,0,3c-0.1,0.4,0,0.9,0,1.4c0,0.3-0.1,0.4-0.4,0.4C176.3,27.8,174.8,27.7,173.2,27.7z"/>
	<path class="st1" d="M145.7,42c0-1.1,0.1-2,0-2.9c-0.1-0.9-0.1-1.9-0.1-2.8c0.1-2,0.1-4.1,0.1-6.1c-0.1-2.1,0-4.2-0.1-6.3
		c0-0.3-0.1-0.7-0.1-1c0-0.2,0-0.3,0.3-0.4c1.1-0.3,2.2-0.4,3.3-0.5c0.7-0.1,1.4-0.1,2.1-0.1c1.9,0.1,3.8,0.4,5.5,1.2
		c2.2,1.1,3.6,2.8,4,5.2c0.4,2.3-0.2,4.4-1.8,6.2c-1.3,1.5-3,2.5-5,2.8c-0.6,0.1-1.2,0.2-1.9,0c-0.3-0.1-0.5,0-0.5,0.4
		c0,1.4-0.1,2.8,0,4.2c0.1,1.2,0,2.3,0.1,3.5c0,0.3-0.1,0.4-0.3,0.4c-0.6,0.1-1.3,0.2-1.9,0.2c-1.1,0-2.2,0-3.3-0.1
		c-0.2,0-0.3-0.1-0.3-0.3C145.7,44.4,145.7,43.1,145.7,42z M150.7,29.3c0,1,0,1.9,0.2,2.8c0.1,0.2,0.2,0.3,0.4,0.3
		c0.5,0,0.9-0.1,1.4-0.1c0.5,0,1-0.1,1.5-0.2c1.4-0.4,2-1.4,1.6-2.7c-0.2-0.8-0.8-1.2-1.4-1.6c-1.1-0.7-2.3-0.8-3.5-0.5
		c-0.1,0-0.3,0-0.3,0.2C150.7,28.1,150.6,28.8,150.7,29.3z"/>
	<path class="st1" d="M152.9,69.2c-0.5,0.7-0.6,1.5-0.8,2.2c-0.2,0.8-0.4,1.7-0.6,2.5c-0.1,0.4-0.3,0.8-0.9,0.9c-0.7,0-1.4,0-2.1,0
		c-0.4,0-0.5-0.3-0.5-0.7c-0.3-2-0.5-4-0.8-6c-0.3-1.8-0.5-3.6-0.7-5.4c-0.2-1.5-0.3-2.9-0.4-4.4c-0.1-1.2-0.2-2.4-0.3-3.6
		c-0.1-1.1,0-2.1-0.2-3.2c0-0.3,0-0.4,0.4-0.5c1.4-0.2,2.9-0.1,4.3-0.1c0.1,0,0.2,0,0.2,0.2c0,0.2,0.1,0.3,0.1,0.5c0.1,3,0,6,0.1,9
		c0,1.4,0.1,2.7,0.5,4.1c0.3-0.5,0.3-1,0.5-1.5c0.4-1.3,0.7-2.7,1-4c0-0.1,0-0.3,0.2-0.3c0.2,0,0.2,0.2,0.2,0.3
		c0.6,1.6,0.8,3.3,1.3,4.9c0.1,0.3,0.2,0.7,0.3,1c0-0.5,0.1-1.1,0.1-1.6c0.1-2.3,0.2-4.5,0.2-6.8c0-0.8,0-1.7,0.1-2.5
		c0.1-1,0.1-2,0.2-2.9c0-0.2,0-0.2,0.2-0.3c0.4,0,0.8-0.2,1.2-0.2c0.9,0,1.8,0,2.7,0c0.7,0,0.7,0,0.7,0.8c-0.1,1.1-0.2,2.2-0.3,3.3
		c-0.1,1.1-0.2,2.1-0.3,3.2c-0.1,0.7-0.1,1.4-0.2,2c-0.1,1.1-0.2,2.2-0.3,3.3c-0.1,0.7-0.1,1.4-0.2,2c-0.1,1.1-0.2,2.2-0.3,3.3
		c-0.1,0.8-0.1,1.5-0.2,2.3c-0.1,1.1-0.2,2.1-0.3,3.2c0,0.2-0.2,0.3-0.4,0.3c-0.8,0-1.5,0-2.3,0c-0.2,0-0.3-0.1-0.4-0.3
		c-0.5-1-0.7-2.1-1-3.2C153.5,70.7,153.4,69.9,152.9,69.2z"/>
	<path class="st1" d="M167.2,51c0.5,0,1.2,0,1.9-0.1c0.3-0.1,0.5,0.1,0.5,0.4c0.4,1.9,0.9,3.9,1.3,5.8c0.8,3.3,1.5,6.7,2.3,10
		c0.5,2.5,1,4.9,1.6,7.4c0,0.2,0,0.3-0.3,0.4c-0.8,0.1-1.6,0.2-2.3,0.1c-0.5-0.1-1.1-0.1-1.6-0.2c-0.3,0-0.4-0.2-0.5-0.4
		c-0.4-1.2-0.6-2.4-1-3.6c-0.1-0.4-0.2-0.8-0.4-1.2c-0.1-0.3-0.3-0.4-0.6-0.4c-0.2,0-0.5,0-0.7,0c-0.9,0-1,0-1.2,0.9
		c-0.3,1.1-0.5,2.2-0.7,3.4c-0.3,1.5-0.3,1.4-1.8,1.4c-1.1,0-2.2,0-3.3,0c-0.4,0-0.4-0.2-0.4-0.5c0.5-2.9,1-5.8,1.6-8.7
		c0.4-2.1,0.9-4.2,1.3-6.3c0.6-2.6,1.3-5.3,2-7.9c0.2-0.7,0.2-0.7,0.9-0.7C166.3,51,166.7,51,167.2,51z M167.5,58.1
		c-0.2,0.4-0.3,0.8-0.3,1.1c-0.1,0.9-0.3,1.9-0.4,2.8c-0.1,0.9-0.3,1.9-0.4,2.8c0,0.2,0,0.3,0.3,0.3c0.6,0,1.2,0,1.8,0
		c0.2,0,0.3,0,0.2-0.2c-0.1-0.3,0-0.6-0.1-0.8c-0.2-1.4-0.4-2.8-0.6-4.2C167.9,59.4,167.9,58.7,167.5,58.1z"/>
	<path class="st1" d="M184.7,60.5c0,0.9,0,1.8,0,2.7c0.1,1.9,0,3.8,0.1,5.7c0.1,1.5,0,3,0.1,4.5c0,0.4,0.1,0.7,0.1,1
		c0,0.2,0,0.3-0.3,0.4c-0.7,0.1-1.4,0-2.1,0.1c-0.9,0-1.8-0.1-2.8,0.1c-0.4,0.1-0.6,0-0.6-0.5c0.2-3.1,0.1-6.3,0.1-9.4
		c0-1.3,0-2.6-0.1-3.9c-0.1-1.3-0.1-2.6-0.2-3.9c0-0.4-0.3-0.4-0.5-0.5c-1-0.2-1.9-0.2-2.9-0.2c-0.7,0-0.7-0.1-0.8-0.8
		c-0.1-1.3-0.1-2.6-0.1-3.9c0-0.9,0-0.9,0.9-0.9c1.1,0,2.2,0,3.4,0c0.7,0,1.3-0.1,2-0.1c1.5,0.1,2.9,0,4.4,0.1
		c1.2,0,2.4,0.2,3.6,0.3c0.2,0,0.3,0.1,0.3,0.3c0,1.5,0.1,3.1-0.1,4.6c0,0.4-0.2,0.5-0.6,0.4c-0.8-0.1-1.6-0.1-2.4,0
		c-0.3,0-0.6,0-0.9,0c-0.5,0-0.6,0.1-0.6,0.6C184.7,58.3,184.7,59.4,184.7,60.5z"/>
	<path class="st1" d="M243.4,25.5c0,0.9,0.1,1.7,0,2.6c-0.1,1.6,0,3.2-0.1,4.8c-0.2,3.2-0.1,6.5-0.1,9.7c0,1,0,2,0.1,3.1
		c0.1,0.4-0.1,0.5-0.5,0.6c-0.9,0.2-1.8,0.2-2.7,0.1c-0.9-0.1-1.8-0.1-2.7-0.1c-0.4,0-0.5-0.1-0.5-0.5c0.3-2.8,0.2-5.7,0.2-8.5
		c0-1.2,0-2.5-0.1-3.7c-0.2-2.7-0.1-5.3-0.1-8c0-1.1,0.1-2.2,0.2-3.2c0.1-0.4,0.2-0.4,0.5-0.4c1.3,0.1,2.5,0.2,3.8,0.2
		c0.4,0,0.9,0,1.3,0c0.4,0,0.4,0.1,0.4,0.5C243.4,23.6,243.4,24.5,243.4,25.5z"/>
</g>
<g>
	<path class="st1" d="M69.8,26.9c0,0.6,0,1.2,0,1.8c-0.1,2,0,3.9-0.1,5.9c-0.1,1.4,0,2.8,0,4.3c0,0.3-0.1,0.5-0.1,0.7
		c0,0.3,0.2,0.4,0.5,0.4c2.2-0.6,4.4-1.3,6.6-1.8c0.8-0.2,1.7-0.4,2.6-0.5c1-0.1,1.9-0.2,2.9-0.2c1.2-0.1,2.5-0.1,3.7-0.1
		c0.7,0,1.5,0,2.2-0.1c1.4-0.1,2.8,0,4.3-0.1c2.2-0.1,4.3-0.1,6.5,0c0.9,0,1.7,0,2.6,0.1c1.1,0.1,2.2,0.1,3.3,0.2
		c1,0.1,2.1,0.2,3.1,0.2c0.6,0,1.2,0,1.8,0.1c1,0.1,2,0,3,0c1.5,0,3-0.2,4.5-0.6c1.9-0.5,3.6-1.2,5.5-1.8c1-0.4,2-0.8,3.1-1
		c0.5-0.1,1-0.2,1.5-0.1c0.4,0.1,0.6,0.5,0.5,0.9c-0.1,0.8-0.7,1.3-1.3,1.8c-1.2,0.9-2.4,1.8-3.6,2.7c-1.2,0.9-2.4,1.9-3.6,2.8
		c-1.1,0.9-2.2,1.8-3.4,2.7c-0.7,0.6-1.4,1.2-2.1,1.8c-0.2,0.1-0.2,0.3-0.2,0.5c0.1,0.2,0.3,0.2,0.4,0.2c0.7-0.1,1.4-0.2,2-0.4
		c1.1-0.2,2.2-0.5,3.3-0.9c0.7-0.3,1.4-0.6,2.1-1c1-0.5,2.1-0.9,3.2-0.8c0.2,0,0.4,0,0.4,0.2c0.1,0.1-0.1,0.3-0.2,0.4
		c-0.3,0.4-0.8,0.6-1.1,0.9c-0.2,0.2-0.4,0.3-0.5,0.5c-0.4,0.5-0.2,0.9,0.5,1.1c0.3,0.1,0.6,0.1,0.9,0.2c0.2,0.1,0.3,0.2,0,0.3
		c-0.3,0.2-0.7,0.5-1,0.6c-0.3,0.2-0.5,0.4-0.7,0.7c-0.2,0.3-0.1,0.5,0.2,0.7c0.3,0.1,0.7,0.2,1,0.3c0.1,0,0.2,0.1,0.1,0.3
		c-0.2,0.6-0.8,0.8-1.3,1.1c-1,0.6-2.2,0.8-3.3,1.2c-0.1,0.1-0.3,0.1-0.3,0.3c0,0.2,0.1,0.3,0.3,0.4c0.2,0.1,0.5,0.3,0.7,0.4
		c0.1,0.1,0.3,0.2,0.2,0.3c0,0.2-0.2,0.2-0.3,0.2c-0.5,0.1-0.9,0.2-1.4,0.2c-1,0.1-1.2,0.9-0.7,1.5c0.2,0.3,0.4,0.5,0.5,0.8
		c0.2,0.3,0.2,0.5-0.3,0.6c-0.5,0.1-1,0.1-1.5,0.1c-0.7,0.1-1.4,0.1-2,0.1c-0.8,0-1.5-0.1-2.3-0.3c-1.2-0.4-2.3-0.9-3.5-1.2
		c-1.1-0.3-2.2-0.6-3.4-0.7c-0.7-0.1-1.3-0.1-2,0c-1.5,0.1-2.9,0.6-4.1,1.7c-1.2,1.2-2.3,2.5-3.5,3.7c-0.9,0.9-1.8,1.8-2.7,2.7
		c-1.4,1.3-2.8,2.5-4.3,3.6c-1.7,1.3-3.5,2.5-5.3,3.6c-1.4,0.9-2.9,1.6-4.4,2.3c-1.8,0.9-3.7,1.6-5.6,2.2c-2.2,0.7-4.3,1.3-6.5,1.9
		c-1.2,0.3-2.4,0.6-3.7,0.8c-1.2,0.2-2.4,0.4-3.7,0.6c-1.1,0.2-2.3,0.4-3.4,0.5c-1.2,0.1-2.4,0.1-3.6,0.1c-1.1,0-2.2-0.2-3.3-0.3
		c-0.8-0.1-1.7-0.1-2.5-0.2c-1-0.1-2-0.2-3.1-0.3c-0.8-0.1-1.6-0.1-2.4-0.2c-0.8-0.1-1.6-0.2-2.4-0.3c-0.3,0-0.5,0-0.8-0.1
		c-1-0.1-2-0.2-3-0.1c-1.6,0.1-3.2,0.2-4.8,0.2c-0.6,0-1.1,0.2-1.6,0.4c-1.9,0.8-3.8,1.5-5.8,2.1c-1,0.3-2,0.5-3,0.7
		c-0.2,0-0.5,0-0.7,0.1c-0.3,0-0.3-0.1-0.3-0.3c0.2-0.9,0.7-1.5,1.2-2.2c0.5-0.6,1-1.2,1.6-1.8c1-0.9,2.1-1.8,3.3-2.5
		c0.6-0.4,1.2-0.7,1.7-1.1c0.2-0.2,0.4-0.4,0.5-0.7c0.2-0.6,0.6-1,1-1.4c0.9-1,1.7-2,2.6-3c1.2-1.4,2.5-2.6,4.2-3.4
		c0.9-0.4,1.7-1,2.4-1.7c1.1-1.1,2.2-2.1,3.3-3.2c0.9-0.8,1.7-1.6,2.6-2.5c1-1,2-1.9,3-2.8c0.5-0.5,1-0.9,1.4-1.5
		c0.2-0.4,0.4-0.8,0.4-1.2c0.1-0.4,0.1-0.8,0.1-1.2c0.1-1.3,0.1-2.6,0.2-3.9c0-0.6,0-1.1,0.1-1.7c0.1-0.9,0.1-1.8,0.3-2.7
		c0.1-0.8,0.2-1.5,0.3-2.3c0.1-0.7,0.2-1.4,0.3-2.2c0.1-0.7,0.2-1.5,0.3-2.2c0.1-0.8,0.2-1.6,0.4-2.4c0.1-0.7,0.2-1.3,0.4-2
		c0.3-1,0.9-1.9,1.7-2.5c0.5-0.4,0.9-0.5,1.4,0.2c0.4,0.5,0.5,1.1,0.6,1.7c0.2,1.4,0.3,2.8,0.5,4.1c0.3,1.5,0.7,3,1.2,4.5
		c0.4,1.4,0.8,2.8,1.1,4.2c0.1,0.3,0,0.6,0.1,0.8c0.1,0.2,0.2,0.2,0.4,0.3c0.2,0,0.3,0,0.4-0.2c0.2-0.4,0.2-0.9,0.1-1.4
		c-0.1-0.5-0.1-1-0.1-1.4c0-0.5,0.1-1,0.2-1.6c0.1-0.9,0.3-1.8,0.5-2.7c0.6-2.1,1.2-4.1,1.8-6.2c0.5-1.8,1.1-3.5,1.8-5.2
		c0.6-1.3,1.2-2.7,2-3.9c0.6-0.9,1.3-1.8,2.4-2.3c0.6-0.3,1.3-0.3,2-0.3c0.4,0,0.7,0.4,0.7,1c0,0.8,0.1,1.7,0.2,2.5
		c0,0.4,0.1,0.8,0.2,1.2c0.1,0.6,0,1.3,0.1,2C69.8,26.6,69.8,26.7,69.8,26.9z M66.9,26.8c-0.3,0.1-0.7,0.1-1.1,0.3
		c-0.5,0.3-1,0.6-1.6,0.8c-0.3,0.1-0.6,0.2-0.7,0.5c-0.8,1.8-1.4,3.7-2,5.5c-0.3,1.1-0.6,2.2-0.9,3.2c-0.3,0.8-0.6,1.7-0.9,2.5
		c-0.4,1.2-0.6,2.3-0.8,3.5c-0.1,1-0.2,2-0.1,3c0.1,1.1,0.2,2.3,0.3,3.4c0.1,0.8,0.1,1.7,0.2,2.5c0.1,0.9,0.2,1.9,0.2,2.9
		c0,1,0,2,0,3.1c-0.1,1.1-0.2,2.2-0.4,3.3c-0.1,0.5-0.3,0.9-0.7,1.2c-0.3,0.1-0.5,0.3-0.8,0.4c-1.3,0.7-2.6,1.3-4,2
		c-1.1,0.5-2.2,1.1-3.3,1.8c-0.9,0.5-1.7,1.1-2.5,1.7c-0.6,0.5-1.2,1.1-1.9,1.5c-0.6,0.5-1.3,0.9-1.8,1.5c-0.8,0.9-1.5,1.9-2.2,2.8
		c-0.6,0.9-1.3,1.7-1.9,2.6c-0.1,0.2-0.1,0.4,0.1,0.3c0.3,0,0.6,0.1,0.9,0.1c0.6,0,1.1,0.1,1.7,0.1c0.9,0.1,1.8,0.2,2.7,0.3
		c0.6,0.1,1.2,0.1,1.8,0.2c0.9,0.1,1.9,0.2,2.8,0.2c0.9,0.1,1.7,0.1,2.6,0.1c1.1,0,2.1,0.1,3.2,0.1c1,0.1,2,0,3-0.1
		c0.4-0.1,0.7,0,1.1-0.1c1-0.2,1.9-0.4,2.9-0.6c1.8-0.4,3.5-0.7,5.3-1.1c1.4-0.3,2.8-0.7,4.2-1.2c1.8-0.6,3.6-1.3,5.3-2
		c1.5-0.7,3-1.4,4.4-2.3c1.5-0.9,3-1.9,4.4-3c1.4-1.1,2.7-2.2,4-3.4c1.9-1.8,3.7-3.7,5.5-5.6c0.9-0.9,1.8-1.8,2.7-2.7
		c0.6-0.6,1.3-1.2,2-1.7c1.3-0.9,2.6-1.8,3.8-2.7c0.4-0.3,0.8-0.6,1.2-1c0.1-0.1,0.1-0.2,0-0.3c-0.1-0.1-0.2-0.1-0.2-0.1
		c-0.6,0.1-1.3,0.2-2,0.3c-2,0.4-4,0.9-6,1.4c-1.2,0.3-2.4,0.6-3.6,0.8c-0.9,0.1-1.8,0.2-2.8,0.3c-1.2,0.1-2.3,0.2-3.5,0.3
		c-0.7,0.1-1.5,0.1-2.2,0.2c-0.3,0-0.6,0-0.8,0.1c-0.7,0.1-1.4,0.2-2.1,0.3c-0.9,0.1-1.7,0.2-2.5,0.4c-0.9,0.2-1.8,0.4-2.7,0.6
		c-1.6,0.4-3.2,0.8-4.8,1.4c-1.8,0.6-3.6,1.3-5.3,2.1c-0.2,0.1-0.2,0-0.3-0.1c-0.5-0.9-0.7-1.9-0.6-3c0.1-0.8,0.3-1.5,0.5-2.3
		c0.3-1.1,0.8-2.2,1.2-3.4c0.6-1.8,0.9-3.6,0.9-5.4c0-1.9-0.1-3.8,0.1-5.7c0.1-1,0.1-2,0.1-3c0-0.9,0.1-1.7,0.1-2.6
		c0-1,0.1-1.9-0.1-2.9c-0.1-0.9-0.3-1.9-0.5-2.8c0-0.1-0.1-0.2-0.2-0.3C67.8,26.9,67.4,26.7,66.9,26.8z"/>
	<path class="st2" d="M33.4,55.3c0,0.5-0.3,0.8-0.7,0.7c-0.5,0-0.9-0.5-0.9-1c0-0.5,0.3-0.7,0.7-0.7C33,54.4,33.4,54.8,33.4,55.3z
		 M33.2,55.3c0-0.4-0.3-0.7-0.7-0.7c-0.3,0-0.6,0.2-0.5,0.6c0,0.3,0.3,0.7,0.7,0.7C33,55.8,33.2,55.6,33.2,55.3z"/>
	<path class="st2" d="M25.8,60.8c0-0.5,0.2-0.7,0.6-0.7c0.4,0,0.8,0.3,0.8,0.8c0,0.4-0.3,0.7-0.6,0.7C26.2,61.6,25.8,61.2,25.8,60.8
		z M27,60.9c0-0.4-0.2-0.6-0.5-0.6c-0.3,0-0.5,0.2-0.5,0.5c0,0.3,0.3,0.6,0.6,0.6C26.9,61.4,27,61.2,27,60.9z"/>
	<path class="st3" d="M27.6,56.2L27.6,56.2C27.6,56.2,27.6,56.2,27.6,56.2c0-0.2-0.1-0.4-0.1-0.5c0-0.2,0.1-0.3,0.3-0.3
		c0.2,0,0.5,0.2,0.5,0.5c0,0.3-0.2,0.4-0.4,0.4C27.9,56.3,27.7,56.2,27.6,56.2z"/>
	<path class="st2" d="M27.6,56.2c0.1,0,0.2,0,0.3,0c0.2,0,0.4-0.1,0.4-0.4c0-0.3-0.2-0.5-0.5-0.5c-0.2,0-0.4,0.1-0.3,0.3
		C27.6,55.9,27.6,56,27.6,56.2c-0.1,0-0.1,0-0.1,0c-0.2-0.2-0.2-0.7,0-0.9c0.2-0.2,0.7-0.1,0.9,0.1c0.2,0.2,0.3,0.5,0.1,0.8
		c-0.1,0.2-0.3,0.3-0.6,0.3C27.8,56.5,27.6,56.5,27.6,56.2z"/>
	<path class="st2" d="M23.2,68.5c0-0.4,0.2-0.5,0.5-0.5c0.3,0,0.6,0.3,0.6,0.6c0,0.3-0.3,0.6-0.5,0.6C23.5,69.1,23.2,68.8,23.2,68.5
		z M23.6,68.1c-0.1,0-0.3,0-0.3,0.2c0,0.2,0,0.5,0.4,0.5c0.2,0,0.3-0.1,0.3-0.2C24.1,68.3,23.9,68.1,23.6,68.1z"/>
	<path class="st2" d="M25.9,64.5c-0.1,0-0.2-0.2-0.2-0.3c0-0.2,0.1-0.4,0.2-0.5c0.2-0.1,0.5-0.1,0.7,0c0.2,0.2,0.3,0.6,0.1,0.8
		c-0.2,0.2-0.5,0.2-0.7,0.1C25.9,64.6,25.8,64.5,25.9,64.5c0.1,0,0.2,0,0.4,0c0.2-0.1,0.3-0.1,0.3-0.3c0-0.2-0.1-0.4-0.4-0.4
		c-0.3,0-0.3,0.2-0.3,0.3C25.9,64.2,25.9,64.4,25.9,64.5z"/>
	<path class="st2" d="M22.9,71.8c-0.2-0.2-0.3-0.6-0.1-0.8c0.1-0.2,0.5-0.2,0.8,0c0.2,0.1,0.2,0.6,0.1,0.8
		C23.4,72,23.1,72,22.9,71.8c0.1,0,0.2-0.1,0.3-0.1c0.3,0,0.2-0.2,0.2-0.4c0-0.2-0.2-0.2-0.4-0.2c-0.2,0-0.3,0.2-0.2,0.4
		C22.9,71.6,22.9,71.7,22.9,71.8z"/>
	<path class="st2" d="M24.6,64.9c0,0.3-0.2,0.5-0.5,0.5c-0.3,0-0.5-0.2-0.6-0.6c0-0.2,0.2-0.5,0.5-0.5
		C24.3,64.3,24.6,64.6,24.6,64.9z M24.3,64.9c0-0.2-0.1-0.3-0.3-0.3c-0.2,0-0.3,0.1-0.3,0.3c0,0.2,0,0.3,0.2,0.3
		C24.2,65.2,24.3,65.1,24.3,64.9z"/>
	<path class="st2" d="M29.9,59c0,0.3-0.2,0.5-0.4,0.5c-0.2,0-0.5-0.3-0.5-0.5c0-0.3,0.2-0.5,0.4-0.5C29.7,58.5,29.9,58.6,29.9,59z
		 M29.1,58.7c0.1,0.3,0.1,0.6,0.4,0.5c0.2,0,0.1-0.2,0.1-0.3C29.6,58.5,29.3,58.8,29.1,58.7z"/>
	<path class="st3" d="M66.9,26.8c0.5,0,0.8,0.1,1.2,0.2c0.1,0,0.2,0.2,0.2,0.3c0.2,0.9,0.4,1.8,0.5,2.8c0.1,1,0.1,1.9,0.1,2.9
		c0,0.9-0.1,1.7-0.1,2.6c0,1-0.1,2-0.1,3c-0.1,1.9,0,3.8-0.1,5.7c0,1.9-0.3,3.7-0.9,5.4c-0.4,1.1-0.9,2.2-1.2,3.4
		c-0.2,0.7-0.4,1.5-0.5,2.3c-0.1,1.1,0.1,2,0.6,3c0.1,0.1,0.1,0.2,0.3,0.1c1.7-0.8,3.5-1.5,5.3-2.1c1.6-0.5,3.2-1,4.8-1.4
		c0.9-0.2,1.8-0.4,2.7-0.6c0.8-0.1,1.7-0.3,2.5-0.4c0.7-0.1,1.4-0.2,2.1-0.3c0.3,0,0.6,0,0.8-0.1c0.7-0.1,1.5-0.1,2.2-0.2
		c1.2-0.1,2.3-0.2,3.5-0.3c0.9-0.1,1.9-0.1,2.8-0.3c1.2-0.2,2.4-0.5,3.6-0.8c2-0.5,4-1,6-1.4c0.6-0.1,1.3-0.2,2-0.3
		c0.1,0,0.2-0.1,0.2,0.1c0.1,0.1,0.1,0.2,0,0.3c-0.3,0.4-0.8,0.7-1.2,1c-1.3,0.9-2.6,1.8-3.8,2.7c-0.7,0.5-1.4,1.1-2,1.7
		c-0.9,0.9-1.9,1.8-2.7,2.7c-1.8,1.9-3.6,3.8-5.5,5.6c-1.2,1.2-2.6,2.4-4,3.4c-1.4,1.1-2.9,2.1-4.4,3c-1.4,0.8-2.9,1.6-4.4,2.3
		c-1.7,0.8-3.5,1.4-5.3,2c-1.4,0.4-2.8,0.9-4.2,1.2c-1.7,0.4-3.5,0.8-5.3,1.1c-1,0.2-1.9,0.4-2.9,0.6c-0.4,0.1-0.7,0-1.1,0.1
		c-1,0.2-2,0.2-3,0.1c-1.1-0.1-2.1-0.1-3.2-0.1c-0.9,0-1.7-0.1-2.6-0.1C48.9,78,48,78,47,77.9c-0.6-0.1-1.2-0.1-1.8-0.2
		c-0.9-0.1-1.8-0.2-2.7-0.3c-0.6-0.1-1.1-0.1-1.7-0.1c-0.3,0-0.6-0.1-0.9-0.1c-0.3,0-0.3-0.2-0.1-0.3c0.6-0.9,1.3-1.7,1.9-2.6
		c0.7-1,1.4-2,2.2-2.8c0.5-0.6,1.2-1,1.8-1.5c0.7-0.5,1.2-1,1.9-1.5c0.8-0.7,1.7-1.2,2.5-1.7c1.1-0.7,2.2-1.2,3.3-1.8
		c1.3-0.6,2.6-1.3,4-2c0.3-0.1,0.5-0.3,0.8-0.4c0.4-0.3,0.6-0.7,0.7-1.2c0.2-1.1,0.4-2.2,0.4-3.3c0.1-1,0.1-2,0-3.1
		c0-1-0.1-1.9-0.2-2.9c-0.1-0.8-0.1-1.7-0.2-2.5c-0.1-1.1-0.2-2.3-0.3-3.4c-0.1-1,0-2,0.1-3c0.2-1.2,0.4-2.4,0.8-3.5
		c0.3-0.8,0.6-1.7,0.9-2.5c0.3-1.1,0.6-2.2,0.9-3.2c0.6-1.9,1.3-3.7,2-5.5c0.1-0.3,0.4-0.4,0.7-0.5c0.6-0.2,1.1-0.5,1.6-0.8
		C66.2,26.9,66.6,26.8,66.9,26.8z"/>
	<path class="st3" d="M33.2,55.3c0,0.3-0.2,0.6-0.5,0.6c-0.3,0-0.7-0.3-0.7-0.7c0-0.3,0.2-0.5,0.5-0.6
		C32.9,54.6,33.2,54.9,33.2,55.3z"/>
	<path class="st3" d="M27,60.9c0,0.4-0.1,0.5-0.4,0.5c-0.3,0-0.6-0.3-0.6-0.6c0-0.3,0.2-0.5,0.5-0.5C26.8,60.3,27,60.5,27,60.9z"/>
	<path class="st3" d="M23.6,68.1c0.3,0,0.5,0.2,0.5,0.4c0,0.2-0.2,0.2-0.3,0.2c-0.4,0-0.3-0.3-0.4-0.5
		C23.3,68.1,23.5,68.1,23.6,68.1z"/>
	<path class="st3" d="M25.9,64.5c0-0.1,0-0.2,0-0.3c0-0.2,0-0.3,0.3-0.3c0.3,0,0.4,0.2,0.4,0.4c0,0.2-0.1,0.3-0.3,0.3
		C26.1,64.5,26,64.5,25.9,64.5C25.9,64.5,25.9,64.5,25.9,64.5z"/>
	<path class="st3" d="M22.9,71.8c0-0.1,0-0.2,0-0.3c-0.1-0.2,0-0.3,0.2-0.4c0.2,0,0.4-0.1,0.4,0.2c0,0.2,0.1,0.4-0.2,0.4
		C23.1,71.7,23,71.8,22.9,71.8C22.9,71.8,22.9,71.8,22.9,71.8z"/>
	<path class="st3" d="M24.3,64.9c0,0.3-0.1,0.3-0.3,0.3c-0.2,0-0.2-0.2-0.2-0.3c0-0.2,0.1-0.3,0.3-0.3
		C24.2,64.6,24.3,64.7,24.3,64.9z"/>
	<path class="st3" d="M29.1,58.7c0.2,0.1,0.5-0.1,0.5,0.2c0,0.1,0.1,0.3-0.1,0.3C29.2,59.2,29.2,58.9,29.1,58.7z"/>
</g>
</svg>
